<svg width="242" height="199" viewBox="0 0 242 199" fill="none" xmlns="http://www.w3.org/2000/svg">
<path d="M236.146 25.8047H48.5923C45.3581 25.8047 42.7363 28.4137 42.7363 31.632V152.173C42.7363 155.391 45.3581 158 48.5923 158H236.146C239.38 158 242.002 155.391 242.002 152.173V31.632C242.002 28.4137 239.38 25.8047 236.146 25.8047Z" fill="#F5F5F5"/>
<path d="M232.355 29.0312H51.8345C48.6003 29.0312 45.9785 31.6402 45.9785 34.8586V148.579C45.9785 151.797 48.6003 154.406 51.8345 154.406H232.355C235.589 154.406 238.211 151.797 238.211 148.579V34.8586C238.211 31.6402 235.589 29.0312 232.355 29.0312Z" fill="#E0E0E0"/>
<path d="M233.673 67.625H48.8652V136.886H233.673V67.625Z" fill="white"/>
<path d="M200.797 66.0469H13.2427C10.0085 66.0469 7.38672 68.6559 7.38672 71.8742V192.415C7.38672 195.633 10.0085 198.242 13.2427 198.242H200.797C204.031 198.242 206.652 195.633 206.652 192.415V71.8742C206.652 68.6559 204.031 66.0469 200.797 66.0469Z" fill="#F5F5F5"/>
<path d="M197.013 69.2734H16.4927C13.2585 69.2734 10.6367 71.8824 10.6367 75.1008V188.821C10.6367 192.039 13.2585 194.648 16.4927 194.648H197.013C200.247 194.648 202.869 192.039 202.869 188.821V75.1008C202.869 71.8824 200.247 69.2734 197.013 69.2734Z" fill="#E0E0E0"/>
<path d="M198.333 107.867H13.5254V177.128H198.333V107.867Z" fill="white"/>
<path d="M179.851 50.0825C179.851 50.0825 180.02 50.1298 180.337 50.2349C180.654 50.3399 181.124 50.4871 181.757 50.6447C183.602 51.0989 185.511 51.234 187.402 51.0441C188.764 50.9092 190.111 50.6507 191.426 50.2716C192.997 49.8408 194.523 49.2601 195.983 48.5376C199.534 46.7414 202.66 44.2141 205.155 41.1234C205.882 40.2736 206.435 39.2899 206.781 38.2281C207.141 37.1202 207.048 35.9159 206.522 34.8756C206.212 34.3631 205.782 33.9335 205.267 33.624C204.753 33.3145 204.17 33.1345 203.57 33.0996C202.308 32.9872 201.04 33.2313 199.911 33.8037C199.313 34.0865 198.696 34.3253 198.063 34.5183C197.399 34.7129 196.694 34.7129 196.03 34.5183C195.681 34.4308 195.359 34.2582 195.093 34.016C194.828 33.7739 194.627 33.4698 194.509 33.1311C194.417 32.7829 194.4 32.419 194.46 32.0637C194.52 31.7085 194.656 31.3701 194.858 31.0713C195.245 30.4692 195.794 29.9868 196.442 29.6788C197.085 29.3728 197.748 29.1112 198.427 28.8959C199.783 28.4173 201.099 27.8322 202.361 27.1461C203.658 26.4434 204.895 25.6349 206.058 24.729C206.658 24.2923 207.201 23.7821 207.673 23.2104C208.159 22.6574 208.435 21.9531 208.455 21.2189C208.427 20.8576 208.306 20.5096 208.104 20.2085C207.901 19.9074 207.624 19.6636 207.298 19.5007C206.619 19.1635 205.872 18.9838 205.112 18.9752C204.32 18.965 203.53 18.8823 202.752 18.7283C202.34 18.6451 201.954 18.4653 201.627 18.2039C201.299 17.9426 201.038 17.6071 200.867 17.2254C200.788 17.0201 200.758 16.7995 200.78 16.5808C200.801 16.362 200.872 16.1511 200.988 15.9643C201.23 15.6224 201.539 15.3328 201.897 15.1131C202.551 14.6612 203.194 14.183 203.824 13.6786C205.086 12.6604 206.267 11.5466 207.356 10.3472C208.502 9.17583 209.457 7.83377 210.187 6.36943C210.527 5.62948 210.674 4.81628 210.614 4.00486C210.544 3.19211 210.195 2.42803 209.627 1.83996C209.055 1.25641 208.342 0.828734 207.556 0.597816C206.77 0.366899 205.938 0.340471 205.139 0.521057C203.548 0.914854 202.122 1.79295 201.057 3.03276C198.866 5.46564 197.847 8.62365 196.062 11.272C195.624 11.9393 195.125 12.5654 194.573 13.1426C194.303 13.4456 193.99 13.7076 193.643 13.9203C193.461 14.0417 193.25 14.1133 193.032 14.1281C192.813 14.1429 192.594 14.1002 192.397 14.0044C192.215 13.8866 192.06 13.7323 191.942 13.5513C191.824 13.3703 191.745 13.1666 191.711 12.9534C191.64 12.5617 191.624 12.162 191.663 11.7659C191.703 11.3984 191.678 11.0266 191.589 10.6677C191.488 10.3202 191.295 10.0062 191.03 9.75865C190.761 9.5145 190.446 9.32567 190.103 9.20303C189.761 9.08038 189.397 9.02635 189.034 9.04402C188.306 9.10898 187.624 9.42497 187.106 9.9373C186.592 10.4439 186.197 11.0577 185.95 11.7344C185.698 12.4102 185.542 13.1176 185.485 13.8362C185.358 15.2707 185.417 16.7157 185.395 18.1292C185.374 19.5427 185.395 20.9509 185.395 22.3329C185.395 23.7149 185.512 25.0968 185.052 26.4157C184.946 26.7494 184.767 27.0559 184.529 27.3137C184.291 27.5715 183.999 27.7743 183.674 27.908C183.019 28.1186 182.31 28.0925 181.673 27.8345C180.457 27.3624 179.378 26.5989 178.531 25.6118C178.122 25.1379 177.767 24.6197 177.475 24.0669C177.207 23.5252 176.909 22.9989 176.582 22.4905C176.275 21.999 175.807 21.6278 175.257 21.4396C174.71 21.2954 174.128 21.3533 173.62 21.6025C173.117 21.8429 172.681 22.204 172.353 22.6534C172.038 23.0996 171.825 23.609 171.73 24.1457C171.593 25.2069 171.53 26.2761 171.54 27.3458C171.497 28.3967 171.492 29.4056 171.508 30.3987C171.54 32.2615 171.708 34.1194 172.01 35.9581C172.261 37.5661 172.655 39.1487 173.187 40.6872C173.409 41.4019 173.715 42.0482 173.974 42.684C174.233 43.3198 174.544 43.8873 174.861 44.4127C175.793 46.0585 176.98 47.548 178.378 48.8266C178.582 49.0257 178.799 49.2117 179.027 49.3836L179.513 49.7724L179.899 50.093C179.899 50.093 179.761 49.9984 179.497 49.7935L179.001 49.4151C178.77 49.2543 178.549 49.0787 178.341 48.8897C176.923 47.6205 175.718 46.134 174.771 44.4863C174.449 43.9609 174.175 43.3671 173.863 42.7523C173.551 42.1375 173.287 41.4702 173.066 40.7503C172.522 39.2131 172.12 37.6303 171.862 36.0211C171.548 34.1747 171.371 32.3078 171.334 30.4355C171.334 29.4424 171.334 28.423 171.334 27.3721C171.321 26.2937 171.382 25.2157 171.519 24.1457C171.62 23.5802 171.841 23.0427 172.168 22.5694C172.517 22.0924 172.98 21.7095 173.515 21.4554C174.067 21.184 174.699 21.1206 175.294 21.2767C175.889 21.4754 176.397 21.8703 176.736 22.396C177.066 22.905 177.369 23.4312 177.644 23.9723C177.937 24.5115 178.292 25.0157 178.7 25.4752C179.524 26.4291 180.57 27.1685 181.747 27.6295C182.336 27.8639 182.989 27.888 183.595 27.6979C183.888 27.5754 184.15 27.3906 184.364 27.1563C184.577 26.9221 184.736 26.6442 184.83 26.3422C185.263 25.1021 185.121 23.7149 185.152 22.3382C185.184 20.9615 185.152 19.5585 185.152 18.1345C185.152 16.7105 185.11 15.2812 185.237 13.8152C185.295 13.0715 185.457 12.3394 185.717 11.6398C185.986 10.9264 186.412 10.2818 186.964 9.75339C187.532 9.19611 188.28 8.85571 189.076 8.7918C189.869 8.76188 190.643 9.04301 191.23 9.57474C191.536 9.85938 191.755 10.2234 191.864 10.6257C191.96 11.012 191.988 11.4119 191.948 11.8079C191.912 12.1812 191.926 12.5577 191.991 12.9272C192.019 13.1007 192.084 13.2666 192.179 13.4147C192.274 13.5629 192.399 13.6902 192.545 13.7889C192.703 13.8617 192.877 13.8922 193.05 13.8775C193.223 13.8627 193.389 13.8032 193.532 13.7049C193.856 13.495 194.147 13.2402 194.398 12.9482C194.939 12.3816 195.426 11.7679 195.856 11.1143C197.614 8.48703 198.628 5.33427 200.867 2.83833C201.97 1.5571 203.446 0.649759 205.091 0.242562C205.938 0.0509502 206.82 0.079369 207.652 0.325082C208.484 0.570795 209.239 1.02553 209.844 1.64554C210.452 2.27703 210.824 3.09662 210.9 3.96808C210.962 4.82432 210.808 5.68253 210.451 6.46401C209.711 7.95936 208.738 9.32854 207.568 10.5206C206.466 11.7275 205.275 12.8499 204.003 13.8783C203.375 14.4037 202.72 14.8661 202.06 15.3233C201.734 15.5243 201.451 15.7867 201.226 16.0957C201.127 16.2508 201.067 16.427 201.051 16.6097C201.034 16.7925 201.062 16.9765 201.131 17.1466C201.293 17.4847 201.532 17.7799 201.831 18.0082C202.129 18.2365 202.477 18.3914 202.847 18.4603C203.609 18.6102 204.383 18.6911 205.16 18.702C205.961 18.7182 206.749 18.9159 207.462 19.28C207.82 19.4717 208.13 19.7432 208.365 20.0734C208.595 20.4115 208.726 20.806 208.745 21.2137C208.732 22.0099 208.434 22.7755 207.906 23.3733C207.425 23.9668 206.869 24.4966 206.253 24.9497C205.078 25.8594 203.831 26.673 202.525 27.3826C201.251 28.0744 199.923 28.663 198.554 29.1429C197.884 29.3534 197.23 29.6098 196.595 29.91C195.979 30.1944 195.455 30.6461 195.085 31.2132C194.9 31.4832 194.776 31.7892 194.719 32.1108C194.663 32.4324 194.676 32.7623 194.757 33.0786C194.864 33.3805 195.044 33.6514 195.282 33.8669C195.52 34.0824 195.808 34.2358 196.12 34.3134C196.742 34.4945 197.404 34.4945 198.026 34.3134C198.649 34.1272 199.256 33.8935 199.843 33.6145C201.01 33.0324 202.317 32.785 203.618 32.8999C204.254 32.9612 204.87 33.1564 205.424 33.4727C205.971 33.7889 206.421 34.2465 206.728 34.7968C207.279 35.8858 207.376 37.1473 206.997 38.3069C206.642 39.3925 206.075 40.3977 205.329 41.2652C202.81 44.3692 199.654 46.9023 196.072 48.6952C194.602 49.4157 193.065 49.9929 191.484 50.4188C190.158 50.7943 188.801 51.0459 187.428 51.1702C185.528 51.3483 183.61 51.1954 181.762 50.7183C181.283 50.599 180.811 50.4534 180.347 50.2821C180.009 50.1508 179.851 50.0825 179.851 50.0825Z" fill="#263238"/>
<path d="M208.66 1.45312C208.66 1.45312 208.617 1.50567 208.522 1.58975C208.427 1.67382 208.274 1.79993 208.1 1.95757C207.725 2.2781 207.176 2.75101 206.484 3.38156C204.527 5.15742 202.707 7.07727 201.04 9.12484C199.984 10.4175 198.87 11.8783 197.713 13.4704C196.557 15.0625 195.337 16.7808 194.117 18.6304C192.828 20.5535 191.647 22.5463 190.58 24.5996C190.025 25.6506 189.523 26.7856 189.022 27.9258C188.52 29.0661 188.008 30.2273 187.49 31.3991C185.522 35.7892 183.801 40.2854 182.337 44.8666C181.155 48.6152 180.331 52.4664 179.876 56.369C179.577 59.0029 179.508 61.6577 179.67 64.3034C179.734 65.2387 179.797 65.9639 179.86 66.4578C179.887 66.689 179.903 66.8782 179.918 67.0148C179.922 67.0795 179.922 67.1445 179.918 67.2092C179.897 67.1481 179.882 67.0846 179.876 67.02C179.876 66.8834 179.829 66.6943 179.792 66.4631C179.712 65.9744 179.633 65.2492 179.549 64.3087C179.35 61.6585 179.392 58.9958 179.676 56.3532C180.107 52.4316 180.917 48.5604 182.094 44.7931C183.546 40.1969 185.263 35.688 187.237 31.2888L188.768 27.8155C189.296 26.6805 189.777 25.5507 190.352 24.4788C191.429 22.4186 192.619 20.4189 193.917 18.4885C195.147 16.6389 196.377 14.9312 197.539 13.339C198.701 11.7469 199.825 10.2861 200.897 8.99873C202.584 6.95714 204.43 5.05245 206.421 3.30274C207.123 2.6827 207.683 2.2203 208.063 1.91028L208.506 1.56347L208.66 1.45312Z" fill="#263238"/>
<path d="M190.411 24.4748C190.346 24.2784 190.302 24.0759 190.279 23.8705C190.21 23.4817 190.126 22.9194 190.031 22.2153C189.846 20.8176 189.656 18.8734 189.45 16.7348C189.244 14.5962 189.033 12.6519 188.822 11.2595C188.721 10.5659 188.631 9.99837 188.568 9.60953C188.523 9.40939 188.498 9.20515 188.494 9C188.574 9.19094 188.632 9.39007 188.668 9.59377C188.763 9.9721 188.88 10.5343 189.006 11.2332C189.26 12.6204 189.508 14.5594 189.709 16.7085C189.909 18.8576 190.078 20.7335 190.237 22.1943C190.3 22.8564 190.358 23.4134 190.4 23.86C190.425 24.064 190.428 24.2701 190.411 24.4748Z" fill="#263238"/>
<path d="M208.594 21.269C208.357 21.3213 208.114 21.3495 207.871 21.353C207.401 21.3898 206.73 21.4371 205.896 21.5264C204.233 21.6893 201.941 21.9941 199.433 22.4407C196.925 22.8874 194.681 23.3971 193.044 23.8122C192.231 24.0119 191.576 24.1905 191.122 24.3114C190.892 24.3897 190.655 24.446 190.414 24.4795C190.632 24.368 190.86 24.2782 191.095 24.2115C191.539 24.0644 192.188 23.8542 192.996 23.6335C194.58 23.1711 196.867 22.6352 199.385 22.1833C201.535 21.7931 203.702 21.5125 205.88 21.3425C206.715 21.2795 207.396 21.2532 207.866 21.2479C208.109 21.2358 208.352 21.2429 208.594 21.269Z" fill="#263238"/>
<path d="M182.32 44.4721C182.272 44.403 182.231 44.329 182.198 44.2514C182.119 44.0727 182.019 43.8573 181.897 43.5946C181.633 43.0218 181.274 42.1863 180.841 41.1459C179.981 39.0704 178.893 36.1646 177.731 32.9435C176.569 29.7224 175.503 26.8061 174.695 24.7148L173.723 22.2399C173.618 21.9719 173.533 21.7459 173.465 21.562C173.426 21.4863 173.401 21.4045 173.391 21.3203C173.44 21.3904 173.481 21.4663 173.512 21.5463C173.597 21.7197 173.697 21.9351 173.818 22.1978C174.077 22.7706 174.436 23.6061 174.874 24.6465C175.73 26.7483 176.823 29.6278 177.985 32.8542C179.146 36.0805 180.208 38.9863 181.021 41.0776L181.987 43.5683L182.246 44.2461C182.283 44.317 182.308 44.3933 182.32 44.4721Z" fill="#263238"/>
<path d="M206.502 36.9609L206.264 37.0555L205.557 37.2815L202.969 38.0907C200.783 38.7738 197.773 39.7511 194.447 40.8388C191.12 41.9265 188.11 42.8776 185.898 43.5134C184.8 43.834 183.907 44.0862 183.284 44.2438L182.571 44.4225C182.488 44.4525 182.401 44.4685 182.312 44.4698C182.389 44.4275 182.471 44.3956 182.555 44.3752L183.258 44.144L185.845 43.3348C188.036 42.6517 191.046 41.6743 194.368 40.5919C197.689 39.5094 200.704 38.5531 202.917 37.912C204.015 37.5915 204.913 37.3445 205.557 37.1816L206.275 37.003C206.348 36.9786 206.425 36.9645 206.502 36.9609Z" fill="#263238"/>
<path d="M167.063 18.0234C167.858 18.0879 168.632 18.3109 169.339 18.6793C170.046 19.0476 170.671 19.5536 171.177 20.1673C172.184 21.402 172.893 22.8513 173.247 24.4025C174.017 27.3714 173.5 30.8604 172.623 33.7978C169.413 32.626 167.459 29.1895 166.572 27.3871C165.178 24.5339 164.397 18.5384 167.063 18.0234Z" fill="#13534B"/>
<path d="M177.231 37.4266C176.754 36.6766 176.485 35.8146 176.451 34.9279C176.417 34.0412 176.618 33.1612 177.035 32.3769C177.468 31.6012 178.051 30.9188 178.751 30.3694C179.45 29.8201 180.253 29.4147 181.112 29.1769C181.494 29.0251 181.904 28.9582 182.315 28.9809C182.725 29.0036 183.126 29.1153 183.488 29.3082C183.794 29.5426 184.032 29.8544 184.176 30.2111C184.32 30.5679 184.365 30.9565 184.306 31.3365C184.18 32.0943 183.854 32.805 183.361 33.3963C181.777 35.4982 179.86 37.2322 177.231 37.4266Z" fill="#13534B"/>
<path d="M177.5 47.3177C177.433 47.1175 177.386 46.9118 177.357 46.7029C177.278 46.2615 177.172 45.694 177.046 45.0109C176.637 43.1515 176.534 41.2387 176.739 39.3465C176.974 37.4342 177.72 35.6196 178.899 34.0919C179.258 33.6371 179.671 33.2277 180.129 32.8728C180.253 32.7751 180.382 32.6839 180.515 32.5996C180.562 32.5693 180.614 32.5463 180.668 32.5312C180.068 33.0312 179.52 33.5892 179.031 34.197C177.918 35.7183 177.209 37.4952 176.972 39.3622C176.771 41.2343 176.851 43.1256 177.209 44.9741C177.32 45.6888 177.405 46.272 177.457 46.6714C177.491 46.8851 177.506 47.1014 177.5 47.3177Z" fill="#263238"/>
<path d="M168.061 22.5469C168.11 22.6234 168.153 22.7043 168.187 22.7886C168.272 22.9725 168.377 23.209 168.515 23.5032C168.789 24.1285 169.185 25.0376 169.661 26.162C170.611 28.411 171.878 31.5375 173.204 35.0213C174.529 38.5051 175.654 41.6894 176.435 44.0014C176.826 45.1574 177.138 46.1033 177.343 46.7496L177.571 47.501C177.602 47.5878 177.625 47.6776 177.639 47.769C177.596 47.6875 177.559 47.6033 177.528 47.5167C177.46 47.3223 177.37 47.0806 177.259 46.7758C177.021 46.1085 176.689 45.1995 176.287 44.054C175.464 41.7524 174.318 38.5839 172.992 35.1211C171.667 31.6584 170.426 28.5056 169.513 26.2409C169.064 25.1269 168.699 24.2178 168.43 23.561L168.145 22.8254C168.104 22.7369 168.076 22.6432 168.061 22.5469Z" fill="#263238"/>
<path d="M173.733 40.7437C172.78 39.1277 171.455 37.7605 169.867 36.7554C168.278 35.7503 166.472 35.1361 164.597 34.9636C163.642 34.8848 162.485 35.0372 162.068 35.8832C161.651 36.7292 162.195 37.7433 162.834 38.4527C164.202 39.9001 165.97 40.912 167.915 41.3608C169.86 41.8097 171.896 41.6754 173.764 40.9749" fill="#13534B"/>
<path d="M166.023 37.5383C166.222 37.5185 166.422 37.5185 166.62 37.5383C166.852 37.5545 167.083 37.5844 167.312 37.6276C167.581 37.6801 167.893 37.7117 168.225 37.8062C168.591 37.8896 168.952 37.9913 169.308 38.111C169.718 38.2466 170.119 38.4045 170.512 38.5839C172.328 39.3936 173.916 40.6351 175.137 42.1991C175.402 42.5349 175.647 42.8858 175.871 43.25C176.065 43.568 176.241 43.896 176.399 44.2326C176.537 44.508 176.661 44.7904 176.769 45.0786C176.862 45.292 176.939 45.5114 177.001 45.7354C177.071 45.9223 177.121 46.1161 177.149 46.3135C177.102 46.3135 176.88 45.5095 176.257 44.3009C176.087 43.9744 175.9 43.6569 175.697 43.3499C175.47 42.9862 175.224 42.6354 174.958 42.2989C174.347 41.5446 173.654 40.8591 172.893 40.2549C172.122 39.6644 171.29 39.1571 170.411 38.7416C170.027 38.5598 169.632 38.4002 169.229 38.2634C168.883 38.1328 168.531 38.0223 168.173 37.9324C166.868 37.6381 166.018 37.5856 166.023 37.5383Z" fill="#263238"/>
<path d="M221.193 44.7266H33.6391C30.405 44.7266 27.7832 47.3356 27.7832 50.5539V171.095C27.7832 174.313 30.405 176.922 33.6391 176.922H221.193C224.427 176.922 227.049 174.313 227.049 171.095V50.5539C227.049 47.3356 224.427 44.7266 221.193 44.7266Z" fill="#F5F5F5"/>
<path d="M217.41 47.9609H36.8891C33.655 47.9609 31.0332 50.5699 31.0332 53.7883V167.508C31.0332 170.727 33.655 173.336 36.8891 173.336H217.41C220.644 173.336 223.266 170.727 223.266 167.508V53.7883C223.266 50.5699 220.644 47.9609 217.41 47.9609Z" fill="#13534B"/>
<path d="M218.73 86.5547H33.9219V155.816H218.73V86.5547Z" fill="white"/>
<path d="M132.467 62.7969V75.76H129.441V70.4476H123.533V75.76H120.518V62.7969H123.533V67.9096H129.441V62.7969H132.467Z" fill="white"/>
<path d="M145.656 73.3534V75.76H135.57V62.7969H145.413V65.2035H138.548V68.02H144.594V70.3688H138.564V73.3691L145.656 73.3534Z" fill="white"/>
<path d="M148.053 62.7969H151.094V73.3061H157.626V75.7495H148.053V62.7969Z" fill="white"/>
<path d="M159.289 62.7969H162.304V73.3061H168.841V75.7495H159.289V62.7969Z" fill="white"/>
<path d="M169.494 69.283C169.494 65.4261 172.509 62.5781 176.623 62.5781C180.736 62.5781 183.751 65.4104 183.751 69.283C183.751 73.1556 180.72 75.9879 176.623 75.9879C172.525 75.9879 169.494 73.1346 169.494 69.283ZM180.699 69.283C180.681 68.4847 180.427 67.7094 179.969 67.0542C179.51 66.3989 178.868 65.8929 178.121 65.5995C177.375 65.3061 176.559 65.2384 175.774 65.4049C174.989 65.5714 174.271 65.9646 173.71 66.5353C173.149 67.106 172.769 67.8289 172.619 68.6132C172.469 69.3976 172.555 70.2086 172.866 70.9446C173.177 71.6807 173.699 72.309 174.368 72.7509C175.036 73.1929 175.82 73.4287 176.623 73.4289C177.17 73.4433 177.714 73.3451 178.221 73.1407C178.728 72.9363 179.187 72.6299 179.57 72.2407C179.952 71.8516 180.25 71.388 180.444 70.8791C180.639 70.3702 180.725 69.8268 180.699 69.283Z" fill="white"/>
<path d="M26.5304 111.958L17.5538 128.394L18.293 88.4853C18.4619 85.9501 19.3217 83.5086 20.7801 81.4231C21.3986 80.487 22.1232 79.6249 22.9398 78.8536C23.9959 77.9656 25.4057 76.8411 26.372 76.4628C27.5707 75.9899 27.6076 74.3347 26.4935 74.0457C25.3793 73.7567 22.0421 74.9757 19.1379 77.9393C16.2337 80.9029 16.8885 74.4976 17.0891 72.1593C17.2898 69.821 17.5591 62.5696 16.8832 61.9601C15.8958 61.0615 14.7182 61.9601 14.5757 64.3141C14.4331 66.6682 13.5196 73.6411 12.2681 73.5097C11.0167 73.3783 12.2259 61.4924 12.2259 61.4924C12.2259 61.4924 12.8912 58.9807 11.4708 58.781C8.90453 58.4185 8.59298 71.1241 8.59298 72.3379C8.59298 73.1787 7.24649 73.0841 7.29401 72.1803C7.34153 71.2765 8.74084 60.3364 6.13233 59.9476C4.13106 59.6481 5.77854 70.399 4.22611 72.5586C2.67368 74.7183 3.81424 64.2563 1.8869 64.0462C1.17405 63.9673 0.624888 64.0094 0.830823 70.0732C0.946991 73.3363 2.41494 78.2126 2.15092 84.5076L2.08755 86.1365C0.572084 97.9121 -6.25545 159.69 17.2475 158.014C17.2475 158.014 35.0794 155.55 44.9907 123.255L26.5304 111.958Z" fill="#FFBE9D"/>
<path d="M6.41992 81.8028C6.41992 81.8606 6.81595 81.9079 7.40207 82.2127C8.19219 82.6182 8.80895 83.2935 9.13932 84.1148L9.32413 84.5825L9.53007 84.1253C9.82614 83.473 10.2395 82.88 10.7498 82.3755C11.733 81.3803 12.9958 80.7044 14.3722 80.4366C15.4283 80.2212 16.1147 80.342 16.1253 80.2579C15.5478 80.046 14.9224 79.9987 14.3194 80.1213C12.838 80.3125 11.4649 80.9957 10.4225 82.0603C9.87991 82.6066 9.44631 83.2502 9.1446 83.9572H9.53535C9.34601 83.5107 9.06988 83.1058 8.72281 82.7659C8.37574 82.4259 7.96458 82.1575 7.51296 81.9762C7.17652 81.8039 6.79353 81.7431 6.41992 81.8028Z" fill="#EB996E"/>
<path d="M133.728 119.633L143.713 138.35L152.832 155.805H132.212L119.434 129.601" fill="#FFBE9D"/>
<path d="M55.5243 155.809C57.4886 149.151 56.2002 148.1 54.088 141.49L49.5469 127.303L39.6092 141.91L18.4824 125.012L25.4895 109.285C38.5796 79.7642 59.812 81.8608 59.812 81.8608L86.8687 76.7218C86.8687 76.7218 104.178 75.1454 115.383 85.2657C119.037 88.5656 135.633 118.296 135.633 118.296L115.24 132.515L110.24 124.029L108.856 135.563C107.768 141.868 107.837 149.892 110.24 155.809" fill="#455A64"/>
<path d="M53.1779 91.9041C53.1779 91.9776 48.7265 92.955 43.2085 94.0847C37.6905 95.2145 33.1758 96.071 33.1758 95.9974C33.1758 95.9238 37.6219 94.9465 43.1451 93.8167C48.6684 92.687 53.162 91.82 53.1779 91.9041Z" fill="#FAFAFA"/>
<path d="M112.662 83.4034C112.662 83.4822 108.295 84.3492 102.872 85.3424C97.449 86.3355 93.0452 87.0869 93.0293 87.0081C93.0135 86.9292 97.4015 86.0675 102.824 85.0744C108.247 84.0813 112.651 83.3298 112.662 83.4034Z" fill="#FAFAFA"/>
<path d="M121.006 93.0174C121.006 93.0909 114.21 94.5937 105.793 96.4171C97.376 98.2404 90.5432 99.6224 90.5274 99.5699C90.5115 99.5173 97.3179 97.9935 105.735 96.1701C114.152 94.3468 120.969 92.9596 121.006 93.0174Z" fill="#FAFAFA"/>
<path d="M129.339 107.828L129.054 107.886L128.219 108.033L124.993 108.559L113.128 110.492L73.9581 116.745C58.645 119.157 44.7946 121.306 34.7513 122.809C29.7349 123.566 25.669 124.154 22.8546 124.543C21.45 124.732 20.357 124.874 19.6124 124.953C19.2415 125.033 18.8601 125.055 18.4824 125.016C18.86 125.01 19.2363 124.971 19.6071 124.9L22.8387 124.438L34.7249 122.62L73.9159 116.472L113.08 110.298L124.961 108.448L128.193 107.959L129.038 107.839L129.339 107.828Z" fill="#FAFAFA"/>
<path d="M109.424 130.831C109.424 130.904 96.8465 132.601 81.3169 134.614C65.7873 136.626 53.1883 138.198 53.1777 138.124C53.1672 138.05 65.7503 136.358 81.2852 134.341C96.8201 132.323 109.393 130.757 109.424 130.831Z" fill="#FAFAFA"/>
<path d="M107.015 150.508C107.015 150.587 95.757 150.577 81.8801 150.508C68.0033 150.44 56.7402 150.298 56.7402 150.219C56.7402 150.14 67.9927 150.151 81.8801 150.219C95.7675 150.288 107.015 150.435 107.015 150.508Z" fill="#FAFAFA"/>
<path d="M60.9052 104.067C60.7867 104.105 60.6646 104.132 60.5408 104.146L59.4847 104.319L55.6301 104.928C52.3721 105.454 47.8785 106.195 42.9571 107.114C38.0358 108.034 33.5475 108.953 30.3212 109.642L26.4823 110.456L25.4263 110.672C25.3056 110.704 25.1816 110.724 25.0566 110.73C25.1706 110.681 25.2891 110.644 25.4104 110.619L26.4823 110.351C27.38 110.13 28.679 109.826 30.2842 109.453C33.5 108.712 37.9566 107.766 42.9096 106.825C47.8626 105.885 52.3615 105.191 55.6248 104.724C57.2617 104.487 58.5818 104.308 59.5006 104.198L60.5567 104.077C60.6722 104.062 60.7889 104.059 60.9052 104.067Z" fill="#FAFAFA"/>
<path d="M84.139 19.2734C83.4895 27.0608 93.9764 32.5886 93.0417 40.3444C92.783 42.4988 91.6583 44.8423 92.8041 46.6919C94.177 48.9146 97.5195 48.447 99.959 49.4086C102.964 50.5909 104.5 54.1903 104.046 57.3693C103.592 60.5483 101.522 63.2965 99.0878 65.4141C95.2449 68.7575 90.4412 70.8112 85.3588 71.2835C83.0037 71.4937 80.5431 71.3255 78.4415 70.2326C76.3399 69.1396 74.6766 67.0325 74.666 64.6784" fill="#263238"/>
<path d="M85.1735 81.188C83.7795 74.541 82.433 67.5261 82.433 67.5261C82.433 67.5261 90.7284 64.2892 90.1318 52.7554C89.5668 41.7523 82.5703 17.5496 82.5703 17.5496C69.1317 15.1377 55.1862 21.5693 48.459 33.3134L60.6725 87.089C62.0877 93.3314 68.5931 97.0727 75.315 95.5331C82.0897 93.9252 86.4989 87.5198 85.1735 81.188Z" fill="#FFBE9D"/>
<path d="M83.4767 37.4138C83.5581 37.7862 83.4906 38.1755 83.2886 38.4991C83.0865 38.8228 82.7657 39.0555 82.3942 39.1479C82.2143 39.2013 82.0254 39.2183 81.8388 39.1979C81.6521 39.1774 81.4715 39.1199 81.3076 39.0288C81.1436 38.9377 80.9997 38.8148 80.8843 38.6674C80.769 38.5199 80.6845 38.351 80.6358 38.1705C80.5519 37.801 80.615 37.4135 80.8119 37.0893C81.0088 36.765 81.3242 36.5292 81.6919 36.4312C81.8739 36.3746 82.0655 36.3552 82.2552 36.3743C82.4449 36.3935 82.6287 36.4507 82.7956 36.5425C82.9624 36.6344 83.1088 36.759 83.2259 36.9087C83.3429 37.0585 83.4283 37.2303 83.4767 37.4138Z" fill="#263238"/>
<path d="M85.0996 35.9698C84.9623 36.1958 83.7003 35.623 82.1531 35.9698C80.606 36.3166 79.6344 37.3097 79.4284 37.1573C79.3281 37.089 79.4284 36.716 79.8561 36.2535C80.4212 35.6525 81.1588 35.2397 81.9683 35.0713C82.7717 34.8984 83.6096 34.9849 84.3603 35.3182C84.92 35.5652 85.1524 35.87 85.0996 35.9698Z" fill="#263238"/>
<path d="M67.6748 41.0279C67.7587 41.3974 67.6956 41.7849 67.4987 42.1092C67.3018 42.4334 66.9864 42.6692 66.6187 42.7672C66.4384 42.8198 66.2494 42.836 66.0627 42.8149C65.876 42.7938 65.6955 42.7357 65.5317 42.6442C65.3678 42.5527 65.2241 42.4295 65.1088 42.2818C64.9935 42.1342 64.909 41.9652 64.8603 41.7846C64.7766 41.4157 64.8398 41.0289 65.0368 40.7056C65.2337 40.3822 65.549 40.1474 65.9164 40.0506C66.0963 39.9971 66.2852 39.9801 66.4718 40.0006C66.6585 40.021 66.8391 40.0785 67.003 40.1696C67.167 40.2608 67.3109 40.3837 67.4262 40.5311C67.5416 40.6785 67.6261 40.8474 67.6748 41.0279Z" fill="#263238"/>
<path d="M69.248 39.5621C69.1107 39.7828 67.8487 39.2101 66.3015 39.5621C64.7544 39.9142 63.7881 40.9021 63.5769 40.7497C63.4765 40.6866 63.5769 40.3083 64.0046 39.8459C64.5719 39.2478 65.3085 38.8355 66.1167 38.6636C66.922 38.4929 67.7609 38.5793 68.514 38.9106C69.0949 39.1575 69.3325 39.457 69.248 39.5621Z" fill="#263238"/>
<path d="M77.4807 49.5229C77.4543 49.4336 78.3836 49.0657 79.8991 48.5403C80.2846 48.4142 80.6436 48.2618 80.6542 47.978C80.5948 47.5639 80.4107 47.1773 80.1261 46.8693L78.3203 44.1212C75.7857 40.196 73.8636 36.9381 74.0273 36.8383C74.191 36.7384 76.3665 39.8387 78.8958 43.7586L80.6595 46.533C81.0051 46.9579 81.1918 47.4891 81.1875 48.0358C81.1597 48.1863 81.0976 48.3285 81.0061 48.4514C80.9146 48.5744 80.796 48.6748 80.6595 48.7452C80.4539 48.851 80.2356 48.9305 80.01 48.9817C78.4787 49.3968 77.5071 49.607 77.4807 49.5229Z" fill="#263238"/>
<path d="M82.4544 67.5281C77.1988 68.7138 71.7158 68.4283 66.6133 66.7031C66.6133 66.7031 71.8937 73.6024 82.8927 70.1922L82.4544 67.5281Z" fill="#EB996E"/>
<path d="M77.6227 53.3661C77.2494 53.0597 76.8038 52.8531 76.328 52.7657C75.8522 52.6784 75.3618 52.7132 74.9033 52.8669C74.5677 52.9678 74.2565 53.1359 73.9886 53.3609C73.7207 53.5859 73.5019 53.8631 73.3456 54.1753C73.192 54.4747 73.1349 54.814 73.1822 55.1469C73.2294 55.4798 73.3787 55.79 73.6096 56.0354C73.9143 56.2546 74.2772 56.3795 74.6529 56.3944C75.0286 56.4094 75.4004 56.3137 75.7218 56.1195C76.3975 55.7123 76.986 55.1767 77.4537 54.5431C77.5987 54.3897 77.7149 54.2118 77.7969 54.0176C77.8366 53.9198 77.8457 53.8123 77.8231 53.7092C77.8005 53.6061 77.7472 53.5122 77.6702 53.4396" fill="#13534B"/>
<path d="M73.1541 51.5411C73.4075 51.4728 73.7666 53.1437 75.4563 54.0318C77.146 54.9198 78.8938 54.3523 78.9572 54.5572C79.0047 54.6571 78.6298 54.9671 77.8747 55.1458C76.8934 55.3683 75.8645 55.238 74.9705 54.7779C74.1127 54.3399 73.4609 53.5856 73.1541 52.6761C72.9534 52.0088 73.0379 51.5569 73.1541 51.5411Z" fill="#263238"/>
<path d="M55.1935 44.7188C53.9361 44.7161 52.7025 45.0598 51.6293 45.7119C50.5613 46.3756 49.8017 47.4339 49.5171 48.6545C49.2943 49.8944 49.5549 51.1722 50.2458 52.2276C50.9359 53.2727 51.8525 54.1507 52.9283 54.7971C53.6658 55.3144 54.5165 55.6494 55.41 55.7745C55.8573 55.8341 56.3124 55.7822 56.7345 55.6235C57.1566 55.4649 57.5325 55.2043 57.8285 54.8654" fill="#FFBE9D"/>
<path d="M56.0467 52.0959C56.1945 52.0959 55.8249 52.9419 54.6685 52.8788C54.0426 52.8011 53.4731 52.4799 53.0844 51.9856C52.6251 51.4402 52.2788 50.8098 52.0653 50.1307C51.8191 49.4118 51.8397 48.6289 52.1234 47.9238C52.2409 47.6233 52.4263 47.3537 52.6653 47.1359C52.9043 46.9181 53.1904 46.758 53.5015 46.6679C54.6263 46.4052 55.1385 47.1093 55.017 47.1566C54.8956 47.2039 54.4203 46.9569 53.7233 47.2879C53.0263 47.619 52.5511 48.6857 52.9629 49.8574C53.3748 51.0292 54.0718 52.0801 54.79 52.222C55.5081 52.3639 55.9728 52.0118 56.0467 52.0959Z" fill="#EB996E"/>
<path d="M79.2918 15.0832C80.1073 16.6799 80.3814 18.4965 80.073 20.2611C79.7646 22.0258 78.8903 23.6436 77.5809 24.8725C74.8985 27.2739 71.0121 27.6154 67.5482 28.6191C64.0843 29.6227 60.3722 32.1607 60.5306 35.7496C60.6256 37.925 62.178 40.0163 61.6183 42.1181C60.9688 44.5825 57.8059 45.6335 56.9135 48.0191C55.4825 51.8549 60.7207 55.3072 60.4883 59.39C60.351 61.8124 58.2917 63.7881 58.0646 66.221C57.7372 69.6575 61.1272 73.3094 59.2421 76.2047C57.7953 78.4327 54.4264 78.1122 51.9552 77.1453C49.484 76.1785 46.7804 74.8018 44.3039 75.7686C42.8149 76.3466 41.7641 77.6708 40.4387 78.5641C39.2284 79.3815 37.8015 79.8233 36.3388 79.8335C34.876 79.8437 33.4431 79.4218 32.2214 78.6213C30.9997 77.8207 30.0442 76.6775 29.4757 75.3363C28.9072 73.9951 28.7513 72.5162 29.0278 71.0868C29.4291 68.9849 30.707 67.1826 31.7366 65.3067C32.7663 63.4308 33.5848 61.2396 32.967 59.1956C32.4864 57.6192 31.2508 56.4317 30.2687 55.118C29.2865 53.8044 28.5209 52.0756 29.1545 50.5675C30.2634 47.914 34.5141 48.1452 36.056 45.7175C38.1681 42.3809 33.2679 38.1352 34.5247 34.3939C35.9504 30.1587 43.5013 30.9153 44.9376 26.6801C45.4656 25.1405 44.9376 23.4433 45.0802 21.8249C45.4551 18.1466 49.3573 15.7558 53.0377 15.12C56.7181 14.4842 60.5622 14.9571 64.174 14.0113C66.1489 13.4858 67.997 12.5558 69.9402 11.9094C71.8834 11.2631 74.0378 10.9426 75.9598 11.652C77.8819 12.3613 79.4185 14.3633 79.033 16.3811" fill="#263238"/>
<path d="M77.627 22.9729C78.6957 24.8132 80.1736 26.3857 81.9474 27.5697C83.7212 28.7538 85.7439 29.518 87.8604 29.8039C87.7917 26.9874 87.6439 24.1499 86.8782 21.4438C86.1126 18.7377 84.6763 16.1157 82.4585 14.3974C80.2408 12.6792 77.1042 11.9645 74.4746 12.9892" fill="#263238"/>
<path d="M91.2244 76.9867C92.1802 77.1128 97.5239 108.304 77.0096 111.767C57.5936 115.051 51.5898 83.0032 51.5898 83.0032C51.5898 83.0032 64.6694 73.4556 91.2244 76.9867Z" fill="#FFBE9D"/>
<path d="M79.4593 34.282C79.5808 34.5079 80.6369 34.1717 81.9517 34.0245C83.2665 33.8774 84.3648 33.951 84.4282 33.704C84.4915 33.457 83.3721 32.9526 81.8461 33.1312C80.32 33.3099 79.3379 34.1033 79.4593 34.282Z" fill="#263238"/>
<path d="M63.7895 36.703C63.837 36.661 63.8317 36.5717 63.7895 36.4298V36.6663C64.5477 36.2829 65.3488 35.9901 66.1762 35.794C67.6336 35.4787 68.8692 35.8255 68.9695 35.5891C69.0118 35.4787 68.7478 35.2318 68.2092 35.0636C67.4969 34.8223 66.732 34.7787 65.9967 34.9375C65.5101 35.0114 65.0437 35.1833 64.6261 35.4426C64.2085 35.7019 63.8484 36.0432 63.5677 36.4456L63.4727 36.6347L63.5519 36.6768C63.6575 36.7346 63.7472 36.7346 63.7895 36.703Z" fill="#263238"/>
<path d="M54.9293 35.7894C53.7319 35.8039 52.5351 35.7284 51.3492 35.5634C50.155 35.4906 48.9685 35.3236 47.8008 35.0642C48.9982 35.0498 50.1949 35.1253 51.3809 35.2902C52.5746 35.3672 53.7608 35.5341 54.9293 35.7894Z" fill="#13534B"/>
<path d="M53.1893 37.7846C52.3001 37.9775 51.3855 38.0271 50.4805 37.9318C49.5721 37.9295 48.67 37.7823 47.8086 37.4956C47.8086 37.4221 49.0178 37.5797 50.4963 37.6585C51.9748 37.7373 53.184 37.7006 53.1893 37.7846Z" fill="#13534B"/>
<path d="M79.4644 21.4453C79.4431 21.5579 79.4076 21.6674 79.3587 21.7711C79.2298 22.0748 79.0514 22.3553 78.8307 22.6013C77.9492 23.4578 76.7867 23.969 75.5569 24.0411C74.7224 24.1339 73.8795 24.1198 73.0487 23.999C72.1563 23.8887 71.2111 23.7258 70.2184 23.6522C69.1872 23.5356 68.1429 23.6487 67.1611 23.9833C66.1392 24.4222 65.2559 25.1286 64.6054 26.0273C63.8819 26.9206 63.2747 27.8769 62.5618 28.7229C62.2105 29.141 61.8197 29.5246 61.3949 29.8684C60.9774 30.1894 60.5194 30.4544 60.0325 30.6566C59.1303 30.9905 58.1961 31.2317 57.2445 31.3765C56.4291 31.5007 55.6254 31.6923 54.8419 31.9493C53.7066 32.3039 52.7352 33.0489 52.1014 34.0511C51.9057 34.4385 51.7856 34.8593 51.7476 35.2912C51.7326 35.1778 51.7326 35.063 51.7476 34.9496C51.7811 34.6211 51.8722 34.301 52.0169 34.0038C52.628 32.936 53.6131 32.1298 54.7838 31.7391C55.5748 31.4669 56.3873 31.2612 57.2128 31.1243C58.1458 30.9756 59.0607 30.7308 59.9428 30.3939C60.8954 29.9822 61.7288 29.339 62.3665 28.5233C63.0635 27.6983 63.6654 26.7367 64.3994 25.8276C65.087 24.9015 66.0115 24.1757 67.0766 23.7258C68.0949 23.3829 69.1771 23.2698 70.2448 23.3948C72.2672 23.5734 74.0361 24.0516 75.5252 23.8467C76.7249 23.8061 77.8715 23.3445 78.7621 22.5435C79.052 22.216 79.289 21.8454 79.4644 21.4453Z" fill="#455A64"/>
<path d="M35.3921 79.0403C35.5514 79.0068 35.7084 78.963 35.862 78.9089C36.2874 78.7146 36.6232 78.3673 36.8019 77.9368C37.0953 77.2566 37.1104 76.4894 36.8442 75.7982C36.5907 74.9785 36.0996 74.1062 35.7247 73.0658C34.7612 70.641 34.4997 67.9961 34.9696 65.4309C35.2907 63.9213 35.9515 62.5039 36.9022 61.285C37.4125 60.6454 38.0096 60.0795 38.6764 59.6035C39.3703 59.1326 40.1184 58.7462 40.9048 58.4527C41.6739 58.1796 42.3888 57.7741 43.0169 57.2547C43.2956 56.9903 43.5128 56.6685 43.6532 56.3117C43.7937 55.955 43.8541 55.572 43.8301 55.1896C43.7403 53.6606 42.9008 52.2576 42.9272 50.7442C42.9418 50.0091 43.1337 49.2883 43.4869 48.6424C43.8147 48.0493 44.2195 47.5016 44.6908 47.0135C45.5418 46.1614 46.4485 45.3662 47.4049 44.6331C49.0946 43.2459 50.1454 41.7379 50.4253 40.5503C50.5691 39.935 50.5691 39.295 50.4253 38.6797C50.446 38.7174 50.4603 38.7582 50.4675 38.8005C50.4675 38.8794 50.5256 39.0002 50.5573 39.1579C50.6342 39.6293 50.6181 40.1112 50.5098 40.5766C50.329 41.3105 50.0042 42.0016 49.554 42.6101C48.9663 43.4137 48.2818 44.1425 47.5158 44.7803C46.5755 45.5185 45.6831 46.3153 44.8439 47.1659C44.3905 47.6397 44.0001 48.1695 43.6823 48.7422C43.3522 49.3502 43.1712 50.0272 43.1542 50.718C43.1812 51.4488 43.3183 52.1715 43.5608 52.8619C43.8264 53.6023 44.0036 54.3712 44.0888 55.1529C44.1168 55.574 44.0513 55.9961 43.8971 56.3893C43.7429 56.7825 43.5037 57.1371 43.1965 57.4281C42.5464 57.9711 41.8044 58.3946 41.0051 58.6787C40.2379 58.9829 39.5094 59.3762 38.8349 59.8505C38.1881 60.3116 37.6088 60.8598 37.1135 61.4794C36.1849 62.6638 35.5369 64.0414 35.2178 65.5097C34.749 68.0296 34.9865 70.6293 35.9042 73.0238C36.2633 74.0747 36.7438 74.9312 36.992 75.7824C37.1122 76.1775 37.1692 76.5888 37.161 77.0015C37.1448 77.3518 37.0568 77.6952 36.9022 78.0104C36.7021 78.4549 36.3369 78.8051 35.8831 78.9877C35.7259 79.0436 35.5576 79.0616 35.3921 79.0403Z" fill="#455A64"/>
<path d="M134.089 140.595C133.833 140.572 133.575 140.572 133.318 140.595C133.318 140.459 133.118 140.359 133.086 140.432C132.954 140.727 132.727 140.585 132.558 140.543C132.131 140.497 131.732 140.313 131.423 140.017C131.951 140.017 132.294 140.569 132.859 140.312C132.183 139.933 131.57 139.539 130.9 139.224C130.587 139.115 130.327 138.891 130.174 138.598C130.021 138.305 129.986 137.965 130.076 137.648C130.301 136.166 131.017 134.801 132.109 133.77C133.044 132.866 133.978 131.957 134.992 131.142C138.111 128.609 141.372 126.254 144.761 124.091C146.113 123.229 147.496 122.425 148.853 121.605C149.136 121.433 149.36 121.18 149.497 120.88C149.92 120.155 150.136 119.304 150.553 118.6C151.081 117.717 151.081 116.724 151.34 115.794C151.483 115.294 151.62 114.795 151.742 114.301C151.806 114.039 151.891 113.783 151.995 113.534C152.296 112.919 152.618 112.299 153.014 111.553C153.014 111.821 153.062 111.952 153.056 112.079C153.278 112.042 153.368 111.642 153.679 111.879C153.747 111.757 153.801 111.628 153.843 111.495L153.574 111.537C153.574 111.448 153.574 111.38 153.574 111.311C153.616 111.033 153.727 110.786 154.065 110.754C154.264 110.755 154.463 110.789 154.651 110.854C154.725 110.886 154.746 111.017 154.783 111.101C154.672 111.238 154.556 111.348 154.382 111.532C154.559 111.52 154.735 111.497 154.91 111.464C154.932 111.57 154.93 111.681 154.905 111.787C154.881 111.893 154.834 111.992 154.767 112.079C154.462 112.422 154.207 112.808 154.012 113.224C153.173 115.473 152.365 117.759 151.551 120.024C151.551 120.024 151.551 120.092 151.551 120.202C151.641 120.202 151.784 120.228 151.868 120.202C152.75 119.918 153.606 119.608 154.461 119.304L156.753 118.505C156.662 118.426 156.566 118.353 156.467 118.284C157.356 117.933 158.346 117.933 159.234 118.284C159.176 118.589 159.139 118.91 159.081 119.214L158.553 119.377C158.347 119.346 158.099 119.115 157.761 119.377C157.888 119.446 157.983 119.472 158.083 119.524C158.165 119.606 158.254 119.682 158.347 119.75C157.788 119.777 157.244 119.803 156.705 119.85C155.939 119.939 155.194 120.159 154.503 120.502C153.484 120.922 152.46 121.437 151.456 121.926C151.318 122.016 151.19 122.121 151.076 122.241C150.897 122.241 150.796 122.336 150.833 122.53C150.458 123.14 150.196 123.813 150.062 124.516C149.434 126.545 148.885 128.61 148.288 130.675C148.231 130.919 148.159 131.159 148.072 131.395C147.924 131.71 147.818 131.752 147.348 131.673C147.28 131.395 147.185 131.116 147.079 130.769L146.604 131.169C146.492 130.861 146.492 130.525 146.604 130.217L148.146 124.569C148.225 124.353 148.278 124.143 148.373 123.786C147.903 124.091 147.533 124.311 147.185 124.532C144.048 126.634 140.911 128.704 137.949 131.021C136.381 132.156 134.913 133.422 133.561 134.805C132.832 135.503 132.243 136.332 131.824 137.248C131.766 137.443 131.713 137.653 131.65 137.821C131.724 137.953 131.826 138.067 131.948 138.158C132.07 138.248 132.209 138.313 132.357 138.346C133.337 138.689 134.383 138.804 135.415 138.683C137.45 138.491 139.458 138.079 141.403 137.453C141.793 137.337 142.2 137.18 142.612 137.085C142.812 137.045 143.015 137.025 143.219 137.027C143.253 137.051 143.294 137.06 143.335 137.054C143.235 137.138 143.161 137.238 142.987 137.406C143.419 137.314 143.846 137.196 144.265 137.054C145.106 136.686 145.97 136.372 146.852 136.113C146.983 136.1 147.104 136.039 147.192 135.942C147.279 135.845 147.328 135.718 147.327 135.588C148.256 135.178 149.17 134.821 150.052 134.374C150.258 134.269 150.495 134.185 150.701 134.059C150.932 133.9 151.172 133.754 151.419 133.622C151.668 133.486 151.947 133.37 152.217 133.234C152.486 133.097 152.745 132.987 153.014 132.871C153.283 132.755 153.542 132.603 153.811 132.487C154.07 132.344 154.336 132.215 154.609 132.099L155.38 131.699C155.652 131.583 155.918 131.454 156.177 131.31C158.199 130.26 160.227 129.261 162.191 128.131C165.36 126.324 168.428 124.395 171.406 122.304C173.496 120.845 175.464 119.221 177.293 117.449C178.362 116.468 179.255 115.313 179.933 114.033C180.245 113.464 180.439 112.839 180.504 112.194C180.558 111.841 180.512 111.48 180.37 111.152C180.228 110.824 179.996 110.542 179.701 110.339C178.769 109.684 177.724 109.205 176.617 108.926C175.972 108.817 175.34 108.641 174.732 108.4C174.606 108.332 174.368 108.4 174.146 108.432C174.146 108.369 174.146 108.295 174.146 108.138H173.481C172.62 108.138 171.754 108.138 170.883 108.085C169.373 108.027 167.863 107.948 166.368 107.864C166.004 107.864 165.655 107.807 165.286 107.78C164.639 107.751 163.99 107.779 163.348 107.864C161.811 108.038 160.259 108.143 158.691 108.253C156.246 108.448 153.817 108.842 151.388 109.257C148.362 109.782 145.384 110.423 142.411 111.222C140.199 111.816 138.028 112.551 135.911 113.424C135.444 113.621 134.99 113.849 134.554 114.107C134.298 114.278 134.057 114.471 133.836 114.685C133.794 115.121 134.227 115.384 133.915 115.799C133.786 115.676 133.665 115.546 133.551 115.41C133.44 115.678 133.313 115.883 133.239 116.119C133.167 116.148 133.098 116.183 133.033 116.224C132.668 115.887 132.367 115.487 132.146 115.042C132.084 114.875 132.063 114.695 132.084 114.518C132.105 114.341 132.168 114.171 132.267 114.023C132.674 113.412 133.216 112.901 133.852 112.53C135.282 111.644 136.833 110.967 138.456 110.518C138.984 110.387 139.48 110.119 139.998 109.961C141.624 109.504 143.272 109.041 144.925 108.621C147.818 107.879 150.752 107.3 153.711 106.887C156.892 106.38 160.102 106.071 163.321 105.962C164.568 105.931 165.803 105.989 167.055 105.999C167.509 105.999 167.936 106.235 168.396 106.13C168.597 106.099 168.808 106.13 168.987 106.01C169.142 105.942 169.314 105.927 169.478 105.967C171.308 106.04 173.132 106.226 174.938 106.524C175.501 106.629 176.056 106.768 176.602 106.94C177.222 107.102 177.832 107.3 178.429 107.533C178.952 107.74 179.464 107.977 179.96 108.243C180.49 108.51 180.943 108.905 181.278 109.393C181.613 109.881 181.819 110.445 181.877 111.033C182.022 111.59 182.091 112.165 182.083 112.741C181.954 113.956 181.494 115.114 180.752 116.088C179.689 117.526 178.468 118.842 177.114 120.013C174.31 122.425 171.327 124.622 168.19 126.587C166.796 127.459 165.391 128.284 163.992 129.135C163.912 129.178 163.824 129.201 163.733 129.203L164.087 128.872C163.95 128.872 163.855 128.846 163.812 128.872C163.432 129.167 163.052 129.456 162.667 129.724C162.281 129.992 162.054 130.249 161.721 130.454C157.525 132.819 153.199 134.948 148.763 136.833C147.406 137.406 146.049 137.958 144.655 138.441C144.006 138.65 143.347 138.825 142.68 138.966C142.612 138.825 142.554 138.74 142.517 138.656C141.952 138.956 141.418 139.276 140.848 139.534C139.022 140.299 137.068 140.717 135.087 140.769C134.751 140.732 134.418 140.674 134.089 140.595ZM142.327 138.183C142.161 138.139 141.985 138.159 141.835 138.24C141.684 138.322 141.571 138.457 141.519 138.62L142.327 138.183ZM154.635 133.423C156.478 132.54 158.3 131.641 160.143 130.738C160.362 130.661 160.574 130.564 160.776 130.449C161.442 129.971 162.128 129.471 162.793 128.972C162.793 128.972 162.793 128.925 162.82 128.878L162.382 128.951C162.445 128.804 162.519 128.704 162.566 128.583C162.498 128.583 162.403 128.583 162.36 128.583C159.411 130.537 156.356 132.329 153.209 133.948C153.696 133.805 154.172 133.629 154.635 133.423ZM163.612 106.624C162.26 106.698 160.929 106.745 159.588 106.866C159.002 106.919 158.437 107.06 157.756 107.176C159.784 107.196 161.81 107.045 163.812 106.724C163.723 106.624 163.665 106.582 163.622 106.588L163.612 106.624Z" fill="#263238"/>
<path d="M185.192 120.37C185.053 120.683 184.933 121.004 184.833 121.332C185.264 121.016 185.666 120.665 186.037 120.281C187.283 118.957 188.538 117.633 189.802 116.309L190.737 115.258C190.853 115.147 191.001 115.079 191.138 114.964L191.597 115.652C191.872 115.536 192.041 115.189 192.411 115.352C192.902 115.836 192.801 116.403 192.696 117.002C192.615 117.373 192.511 117.738 192.384 118.095L191.175 122.126C191.133 122.267 191.064 122.415 191.006 122.583C190.763 122.372 190.879 122.131 190.911 121.921C190.943 121.71 191.043 121.353 191.127 121.069C191.352 120.631 191.509 120.162 191.592 119.677C191.349 120.103 191.011 120.523 191.127 121.069C190.863 121.248 190.827 121.553 190.737 121.837C190.647 122.12 190.541 122.546 190.415 122.977L189.992 122.64C189.911 122.715 189.824 122.783 189.733 122.845C189.628 122.772 189.522 122.698 189.401 122.63C189.438 122.215 189.628 121.847 189.438 121.427C189.401 121.322 189.485 121.169 189.528 121.027L190.219 118.826C190.219 118.71 190.262 118.573 190.33 118.3L188.667 119.966C188.599 119.973 188.533 119.991 188.471 120.018C188.239 119.992 188.197 120.018 188.07 120.339C188.175 120.293 188.285 120.259 188.398 120.239C188.582 120.276 188.677 120.166 188.746 120.018C188.926 119.898 189.116 119.798 189.406 119.635C188.619 120.583 187.752 121.462 186.813 122.262C186.338 122.683 185.831 123.04 185.33 123.418C185.037 123.621 184.703 123.756 184.351 123.813C183.999 123.869 183.638 123.846 183.297 123.744C183.135 123.712 182.989 123.626 182.884 123.5C182.779 123.373 182.722 123.214 182.721 123.05C182.617 122.305 182.721 121.545 183.022 120.854C183.371 120.072 183.764 119.311 184.2 118.573C185.123 117.026 186.243 115.602 187.532 114.338C188.005 113.898 188.552 113.543 189.147 113.287C189.393 113.138 189.622 112.961 189.829 112.762C190.061 112.572 190.315 112.408 190.584 112.273C191.027 112.063 191.392 112.315 191.735 112.594C191.64 112.594 191.545 112.562 191.407 112.541C191.4 112.669 191.4 112.797 191.407 112.925C191.608 112.925 191.814 112.925 191.999 112.925C192.245 113.07 192.435 113.294 192.539 113.56C192.642 113.825 192.653 114.118 192.569 114.391C192.12 114.69 192.073 114.68 191.714 114.312C191.634 114.37 191.529 114.433 191.428 114.517C191.355 114.464 191.26 114.433 191.18 114.38C191.115 114.303 191.056 114.223 191.001 114.139C190.738 114.295 190.488 114.471 190.251 114.664C189.501 115.331 188.735 116.03 188.017 116.719C187.6 117.081 187.241 117.507 186.856 117.89C186.195 118.641 185.636 119.475 185.192 120.37ZM184.717 122.472C184.593 122.535 184.464 122.587 184.332 122.63C184.712 122.714 184.812 122.651 184.717 122.483V122.472ZM185.076 122.052C185.213 122.052 185.309 122.099 185.404 122.11C185.441 121.977 185.487 121.848 185.541 121.721L185.076 122.052ZM187.848 120.476C187.864 120.483 187.877 120.494 187.887 120.508C187.897 120.522 187.904 120.538 187.906 120.554L188.012 120.376L187.848 120.476Z" fill="#263238"/>
<path d="M202.312 115.331C202.175 116.908 202.053 118.426 201.937 119.982L201.853 121.059C201.823 121.262 201.851 121.469 201.932 121.658C202.024 121.849 202.058 122.063 202.03 122.273C202.002 122.483 201.913 122.68 201.773 122.84C201.657 122.951 201.503 123.016 201.342 123.023C201.181 123.029 201.023 122.978 200.897 122.877C200.808 122.817 200.707 122.78 200.601 122.767C200.147 122.641 200.005 122.462 200.015 122.01L200.184 119.561C200.226 118.878 200.29 118.211 200.374 117.517C200.343 117.109 200.431 116.7 200.628 116.34C200.657 116.301 200.678 116.255 200.688 116.208C200.699 116.16 200.7 116.11 200.691 116.062C200.736 115.789 200.757 115.513 200.754 115.237C200.719 114.999 200.662 114.765 200.585 114.538C200.243 114.549 199.913 114.671 199.645 114.885C197.977 116.021 196.575 117.503 195.537 119.23C195.449 119.407 195.318 119.561 195.157 119.677C194.851 119.866 194.629 119.74 194.629 119.388C194.627 118.932 194.648 118.476 194.692 118.022C194.789 117.071 195.009 116.136 195.347 115.242L195.749 114.018C195.701 114.018 195.617 114.065 195.506 114.081C195.733 113.247 196.078 112.449 196.53 111.711C196.666 111.79 196.795 111.882 196.916 111.984C196.747 112.194 196.599 112.378 196.451 112.583C196.708 112.952 196.812 113.406 196.741 113.85C196.984 113.324 197.269 112.851 197.512 112.273C197.556 112.361 197.588 112.455 197.607 112.552C197.607 112.641 197.533 112.767 197.56 112.788C197.919 113.177 197.634 113.498 197.444 113.839C197.32 114.093 197.243 114.367 197.216 114.648L198.31 113.85C198.262 114.107 198.23 114.202 198.199 114.412C198.51 114.244 198.801 114.081 199.112 113.886C199.019 113.832 198.92 113.79 198.816 113.76C198.929 113.511 199.102 113.293 199.32 113.126C199.538 112.959 199.794 112.849 200.065 112.804C200.336 112.759 200.614 112.782 200.875 112.87C201.135 112.958 201.369 113.108 201.557 113.308C201.824 113.57 202.03 113.887 202.161 114.236C202.291 114.586 202.343 114.96 202.312 115.331ZM195.875 113.587C195.839 113.674 195.793 113.757 195.738 113.834C195.738 113.881 195.738 113.923 195.738 113.986C195.902 113.897 196.044 113.781 195.87 113.587H195.875Z" fill="#263238"/>
<path d="M204.56 117.044C204.424 117.36 204.305 117.683 204.206 118.011C204.636 117.697 205.037 117.345 205.405 116.96C206.656 115.641 207.903 114.333 209.17 112.993L210.105 111.942C210.221 111.832 210.369 111.758 210.511 111.648L210.97 112.336C211.245 112.221 211.409 111.874 211.778 112.037C212.275 112.52 212.169 113.088 212.064 113.687C211.985 114.057 211.883 114.422 211.757 114.78L210.543 118.805C210.501 118.952 210.437 119.094 210.374 119.267C210.131 119.057 210.247 118.81 210.284 118.605C210.347 118.321 210.411 118.038 210.495 117.754C210.722 117.317 210.879 116.847 210.96 116.361C210.717 116.787 210.379 117.207 210.495 117.754C210.231 117.932 210.194 118.232 210.11 118.521C210.025 118.81 209.914 119.23 209.782 119.661L209.36 119.325C209.279 119.399 209.192 119.468 209.101 119.53C208.995 119.451 208.884 119.38 208.769 119.314C208.811 118.899 208.996 118.532 208.811 118.111C208.769 118.001 208.858 117.854 208.901 117.712L209.587 115.51C209.613 115.395 209.635 115.253 209.703 114.985L208.035 116.65C207.967 116.658 207.901 116.676 207.839 116.703C207.607 116.677 207.57 116.703 207.443 117.023C207.546 116.977 207.654 116.943 207.765 116.924C207.841 116.938 207.919 116.923 207.984 116.882C208.048 116.841 208.095 116.777 208.114 116.703C208.299 116.582 208.483 116.482 208.774 116.319C207.987 117.268 207.12 118.147 206.181 118.947C205.711 119.372 205.204 119.73 204.703 120.108C204.41 120.311 204.076 120.446 203.724 120.502C203.372 120.559 203.011 120.535 202.67 120.434C202.508 120.403 202.361 120.317 202.256 120.19C202.151 120.064 202.094 119.904 202.094 119.74C201.99 118.994 202.094 118.234 202.395 117.544C202.744 116.761 203.135 115.998 203.567 115.258C204.491 113.711 205.611 112.29 206.899 111.028C207.372 110.586 207.919 110.23 208.515 109.977C208.761 109.826 208.991 109.65 209.202 109.452C209.433 109.26 209.687 109.096 209.957 108.963C210.395 108.747 210.759 109.005 211.103 109.283C211.013 109.283 210.912 109.247 210.775 109.226C210.775 109.341 210.775 109.457 210.775 109.614C210.981 109.614 211.187 109.614 211.367 109.614C211.614 109.758 211.806 109.982 211.909 110.248C212.013 110.515 212.023 110.808 211.937 111.08C211.488 111.38 211.44 111.364 211.081 110.996C211.002 111.059 210.902 111.123 210.802 111.207C210.722 111.149 210.627 111.123 210.548 111.07C210.469 111.017 210.464 110.944 210.374 110.828C210.111 110.987 209.859 111.162 209.619 111.354C208.874 112.026 208.109 112.725 207.385 113.414C206.973 113.776 206.614 114.202 206.223 114.585C205.568 115.332 205.009 116.159 204.56 117.044ZM204.085 119.146C203.962 119.208 203.835 119.26 203.705 119.304C204.08 119.388 204.18 119.325 204.085 119.162V119.146ZM204.444 118.726C204.587 118.726 204.682 118.773 204.771 118.778C204.803 118.684 204.829 118.589 204.909 118.395L204.444 118.726ZM207.216 117.15C207.232 117.157 207.246 117.168 207.257 117.181C207.268 117.195 207.276 117.211 207.28 117.228L207.385 117.05L207.216 117.15Z" fill="#263238"/>
</svg>
