<svg width="70" height="70" viewBox="0 0 70 70" fill="none" xmlns="http://www.w3.org/2000/svg">
<mask id="mask0_462_6300" style="mask-type:luminance" maskUnits="userSpaceOnUse" x="0" y="0" width="70" height="70">
<path d="M0 0H70V70H0V0Z" fill="white"/>
</mask>
<g mask="url(#mask0_462_6300)">
<path d="M39.3751 28.4375H30.6251V35M30.6251 35H37.6251M30.6251 35V41.5625H39.3751M15.3126 43.75V26.25M24.0626 26.25V43.75M17.5001 26.25C17.5001 28.4375 21.8751 41.5625 21.8751 43.75M43.7501 26.25V41.5625M43.7501 41.5625V43.75M43.7501 41.5625C43.7501 37.5156 46.607 33.495 48.7945 33.495C50.982 33.495 54.6876 37.5156 54.6876 41.5625M54.6876 41.5625V26.25M54.6876 41.5625V43.75M35.0001 4.375L43.3257 9.36688L52.9989 10.2244L56.8051 19.1581L64.1245 25.5369L61.9501 35L64.1245 44.4631L56.8007 50.8419L52.9989 59.7756L43.3301 60.6287L35.0001 65.625L26.6701 60.6287L17.0014 59.7756L13.1951 50.8419L5.87573 44.4631L8.05011 35L5.87573 25.5369L13.1951 19.1581L17.0014 10.2244L26.6701 9.36688L35.0001 4.375Z" stroke="black" stroke-width="2"/>
</g>
</svg>
