<?xml version="1.0" standalone="no"?>
<svg xmlns:xlink="http://www.w3.org/1999/xlink" id="wave" style="transform:rotate(180deg); transition: 0.3s" viewBox="0 0 1440 490" version="1.1" xmlns="http://www.w3.org/2000/svg"><defs><linearGradient id="sw-gradient-0" x1="0" x2="0" y1="1" y2="0"><stop stop-color="rgba(255, 255, 255, 1)" offset="0%"/><stop stop-color="rgba(255, 255, 255, 1)" offset="100%"/></linearGradient></defs><path style="transform:translate(0, 0px); opacity:1" fill="url(#sw-gradient-0)" d="M0,98L120,81.7C240,65,480,33,720,40.8C960,49,1200,98,1440,114.3C1680,131,1920,114,2160,130.7C2400,147,2640,196,2880,236.8C3120,278,3360,310,3600,294C3840,278,4080,212,4320,196C4560,180,4800,212,5040,196C5280,180,5520,114,5760,98C6000,82,6240,114,6480,138.8C6720,163,6960,180,7200,163.3C7440,147,7680,98,7920,130.7C8160,163,8400,278,8640,326.7C8880,376,9120,359,9360,318.5C9600,278,9840,212,10080,204.2C10320,196,10560,245,10800,236.8C11040,229,11280,163,11520,163.3C11760,163,12000,229,12240,212.3C12480,196,12720,98,12960,89.8C13200,82,13440,163,13680,204.2C13920,245,14160,245,14400,220.5C14640,196,14880,147,15120,122.5C15360,98,15600,98,15840,98C16080,98,16320,98,16560,122.5C16800,147,17040,196,17160,220.5L17280,245L17280,490L17160,490C17040,490,16800,490,16560,490C16320,490,16080,490,15840,490C15600,490,15360,490,15120,490C14880,490,14640,490,14400,490C14160,490,13920,490,13680,490C13440,490,13200,490,12960,490C12720,490,12480,490,12240,490C12000,490,11760,490,11520,490C11280,490,11040,490,10800,490C10560,490,10320,490,10080,490C9840,490,9600,490,9360,490C9120,490,8880,490,8640,490C8400,490,8160,490,7920,490C7680,490,7440,490,7200,490C6960,490,6720,490,6480,490C6240,490,6000,490,5760,490C5520,490,5280,490,5040,490C4800,490,4560,490,4320,490C4080,490,3840,490,3600,490C3360,490,3120,490,2880,490C2640,490,2400,490,2160,490C1920,490,1680,490,1440,490C1200,490,960,490,720,490C480,490,240,490,120,490L0,490Z"/></svg>