<svg width="80" height="75" viewBox="0 0 80 75" fill="none" xmlns="http://www.w3.org/2000/svg">
<path d="M50.6701 49.0615L54.2048 56.1407C54.2048 56.1407 70.0945 59.2831 70.0945 66.7575C70.0945 72.0678 63.0251 72.0678 63.0251 72.0678H44.198L34.9287 67.2716" stroke="black" stroke-width="4.75" stroke-linecap="round" stroke-linejoin="round"/>
<path d="M29.4849 49.0615L25.9543 56.1407C25.9543 56.1407 10.0605 59.2831 10.0605 66.7575C10.0605 72.0678 17.13 72.0678 17.13 72.0678H25.6577L34.9271 67.2716L46.2562 60.557" stroke="black" stroke-width="4.75" stroke-linecap="round" stroke-linejoin="round"/>
<path d="M3 52.5963C3 52.5963 11.8285 50.8274 17.1265 49.0586C22.4203 24.2797 38.3058 26.0485 40.0773 26.0485C41.8488 26.0485 57.7343 24.2797 63.0282 49.0586C68.3261 50.8236 77.1546 52.5963 77.1546 52.5963M40.0773 18.3478C42.2625 18.3478 44.3583 17.5393 45.9034 16.1001C47.4486 14.661 48.3167 12.7091 48.3167 10.6739C48.3167 8.63864 47.4486 6.68676 45.9034 5.24763C44.3583 3.8085 42.2625 3 40.0773 3C37.8921 3 35.7964 3.8085 34.2512 5.24763C32.706 6.68676 31.8379 8.63864 31.8379 10.6739C31.8379 12.7091 32.706 14.661 34.2512 16.1001C35.7964 17.5393 37.8921 18.3478 40.0773 18.3478Z" stroke="black" stroke-width="4.75" stroke-linecap="round" stroke-linejoin="round"/>
</svg>
