<svg width="40" height="37" viewBox="0 0 40 37" fill="none" xmlns="http://www.w3.org/2000/svg">
<path d="M12.8351 24.9189C12.2668 26.0839 10.9614 26.6033 9.8046 27.167L3.12027 30.4248C0.434435 31.7351 1.7746 35.1689 4.65477 35.1689C11.0568 35.1689 16.1204 32.2749 21.9064 30.0439C23.3639 29.4818 24.0698 29.6014 25.4998 30.1993" stroke="#13534B" stroke-width="2" stroke-linecap="round" stroke-linejoin="round"/>
<path d="M14.998 30.1993C16.428 29.6014 17.1339 29.4818 18.5914 30.0439C24.3774 32.275 29.441 35.1689 35.8431 35.1689C38.7214 35.1689 40.0634 31.7351 37.3776 30.4248L30.6932 27.167C29.5364 26.6033 28.2292 26.084 27.6627 24.9189M20.498 11.2522C17.5807 11.2522 14.7828 12.3321 12.7199 14.2544C10.657 16.1766 9.49805 18.7837 9.49805 21.5022C12.4154 21.5022 15.2133 20.4223 17.2762 18.5C19.3391 16.5778 20.498 13.9707 20.498 11.2522ZM20.498 11.2522C23.4154 11.2522 26.2133 12.3321 28.2762 14.2544C30.3391 16.1766 31.498 18.7837 31.498 21.5022C28.5807 21.5022 25.7828 20.4223 23.7199 18.5C21.657 16.5778 20.498 13.9707 20.498 11.2522ZM16.8314 4.41886C16.8314 5.32502 17.2177 6.19406 17.9053 6.83481C18.593 7.47556 19.5256 7.83553 20.498 7.83553C21.4705 7.83553 22.4031 7.47556 23.0908 6.83481C23.7784 6.19406 24.1647 5.32502 24.1647 4.41886C24.1647 3.51271 23.7784 2.64367 23.0908 2.00292C22.4031 1.36217 21.4705 1.0022 20.498 1.0022C19.5256 1.0022 18.593 1.36217 17.9053 2.00292C17.2177 2.64367 16.8314 3.51271 16.8314 4.41886Z" stroke="#13534B" stroke-width="2" stroke-linecap="round" stroke-linejoin="round"/>
</svg>
